<svg width="185" height="52" xmlns="http://www.w3.org/2000/svg"><g fill="none"><path d="M82 0h-8.85l-5.12 10.229-.01.033a1.538 1.538 0 00-.159.378L67.95 0h-7.763L60 23h7.765l.087-10.874c.045.166.103.314.174.43l.005.016L72.777 23h9.192L75.54 11.366 82 0zm91 0h-8.851l-5.119 10.229-.01.033a1.605 1.605 0 00-.159.378l.09-10.64h-7.766L151 23h7.764l.087-10.874c.045.166.103.314.174.43l.005.016L163.776 23h9.193l-6.428-11.634L173 0zM13.901 13.18c-.032 2.325-.924 3.404-2.901 3.404-2.136 0-2.965-1.01-2.965-3.034 0-1.414.032-2.83.032-4.247L8.13 0H.16L.031 9.506C0 11.192 0 13.08 0 14.53 0 18.844 2.518 24 10.585 24c8.832 0 11.255-4.348 11.287-11.595L22 0h-7.97l-.13 13.18zM49 23h7.812L57 0h-7.812zm55 0h7.812L112 0h-7.813zm36-.06L140.187 0 148 .06 147.813 23zm-48.308-6.729L91.878 0H84.16l-.152 18.65c-.001.054-.008.107-.008.16 0 .043.005.083.005.124v.033l.002.001c.08 2.09 1.732 3.79 3.844 4.008.038.004.074.008.112.01.109.01.219.012.329.012l.002.002h12.645l.061-6.78h-9.301l-.007-.009M39.922 0l-.06 12.404.287 1.434-.666-1.443L35.043 0H25.16L25 23h7.014l-.207-12.517-.29-1.45.675 1.457L36.957 23h9.851L47 0zm90 0l-.06 12.385h.003l.291 1.453-.673-1.445L125.043 0h-9.883L115 23h7.014l-.21-12.553-.281-1.414.67 1.458L126.956 23h9.851L137 0z" fill="#690"/><path d="M7.934 51H0V28h13.011c3.527-.002 6.57 2.201 7.562 5.122.92 2.705.135 5.647-1.94 7.739.275.72.545 1.285.8 1.933.576 1.28 1.104 2.56 1.68 3.825L23 51h-8.044c0 .003-.064-.186-.128-.262-.32-.678-.609-1.404-.928-2.082l-1.936-4.427c-.768-1.79-1.535-3.482-2.303-5.27.959-.026 1.675.146 2.6-.262.65-.309 1.634-1.075 1.66-2.546-.026-.727-.235-1.279-.734-1.853a2.972 2.972 0 00-2.171-.942H7.934V51zM90 28v23h-7.842v-9.38h-5.49V51c-1.424 0-2.956-.015-4.38 0h-3.463V33.322h-5.483V51h-7.844V33.322h-5.531V51h-8.078c-1.408-3.316-2.893-6.664-4.269-9.965-.158-.695-.315-1.388-.522-2.068V51h-8.093c-1.605-3.64-3.146-7.207-4.746-10.902-.556-1.28-1.01-2.322-1.581-3.653l-.08-.174-1.245-2.852-1.784-4.077c-.157-.462-.41-.88-.569-1.342h8.076a552.467 552.467 0 005.074 11.693l.048.093c-.063-.448-.206-1.019-.285-1.45V31.47c.015-1.095 0-2.344 0-3.47h8.093c.104.25.16.386.239.586.948 2.175 1.849 4.335 2.797 6.494l2.12 4.706c-.049-.495-.159-.972-.222-1.45V28h31.728v8.299h5.49V28H90z" fill="#00549F"/><path d="M113 42l2.464-10h.07L118 42h-5zm-16 0l2.464-10h.07L102 42h-5zm20.774-14h-5.866l-4.906 18.128L102.092 28h-5.864L90 51h4.942l1.086-4.864h6.262L103.376 51h7.248l1.086-4.864h6.262L119.06 51H124l-6.226-23z" fill="#8EBAE5"/><path d="M136.809 36.248c0-3.363-.48-8.248-7.052-8.248-6.894 0-7.757 4.981-7.757 12s.863 12 7.757 12c6.03 0 7.243-4.302 7.243-9.284h-4.595c0 4.982-1.212 5.855-2.872 5.855-1.98 0-2.937-1.26-2.937-8.247 0-6.534.543-8.895 2.872-8.895 2.076 0 2.746 1.456 2.746 4.82h4.595zM139 51h4.736V40.788h5.526V51H154V28h-4.738v8.794h-5.526V28H139zm16-23v23h13v-3.801h-8.424v-6.185h7.628v-3.801h-7.628v-5.412h8.105V28zm25.58 0v15.752h-.069L174.621 28H169v23h4.47V34.893h.066L179.497 51H185V28z" fill="#8EBAE5"/></g></svg>